<svg width="58" height="58" viewBox="0 0 58 58" fill="none" xmlns="http://www.w3.org/2000/svg">
<path d="M58 11.9226C55.8431 12.8687 53.5449 13.4959 51.1488 13.8004C53.6138 12.3286 55.4951 10.0159 56.3797 7.22825C54.0813 8.59849 51.5439 9.56637 48.8397 10.1065C46.6573 7.78287 43.5471 6.34375 40.1541 6.34375C33.5711 6.34375 28.2713 11.687 28.2713 18.2374C28.2713 19.1799 28.3511 20.0861 28.5469 20.9489C18.6615 20.4667 9.91438 15.7289 4.03824 8.51151C3.01238 10.2914 2.41062 12.3286 2.41062 14.5217C2.41062 18.6397 4.53124 22.2901 7.69224 24.4034C5.78188 24.3673 3.90774 23.8126 2.32 22.939C2.32 22.9752 2.32 23.0224 2.32 23.0695C2.32 28.8476 6.44162 33.6472 11.8465 34.753C10.8786 35.0174 9.82376 35.1443 8.729 35.1443C7.96776 35.1443 7.19924 35.101 6.47788 34.9413C8.0185 39.6502 12.3903 43.1122 17.5885 43.2244C13.543 46.3892 8.40638 48.296 2.84562 48.296C1.8705 48.296 0.93525 48.2523 0 48.1329C5.26712 51.5293 11.5094 53.4686 18.241 53.4686C40.1214 53.4686 52.084 35.3439 52.084 19.633C52.084 19.1074 52.0659 18.5999 52.0404 18.096C54.4003 16.4212 56.3832 14.3296 58 11.9226Z" fill="url(#paint0_linear_5_3)"/>
<defs>
<linearGradient id="paint0_linear_5_3" x1="29.299" y1="6.68632" x2="29.9633" y2="53.3919" gradientUnits="userSpaceOnUse">
<stop stop-color="#C60B0B"/>
<stop offset="1" stop-color="#FF4C29" stop-opacity="0.97"/>
</linearGradient>
</defs>
</svg>
