<?xml version="1.0" encoding="UTF-8" standalone="no"?>
<svg
   width="58"
   height="58"
   viewBox="0 0 58 58"
   fill="none"
   version="1.1"
   id="svg1051"
   sodipodi:docname="twitter 1.svg"
   inkscape:version="1.1.1 (3bf5ae0d25, 2021-09-20)"
   xmlns:inkscape="http://www.inkscape.org/namespaces/inkscape"
   xmlns:sodipodi="http://sodipodi.sourceforge.net/DTD/sodipodi-0.dtd"
   xmlns:xlink="http://www.w3.org/1999/xlink"
   xmlns="http://www.w3.org/2000/svg"
   xmlns:svg="http://www.w3.org/2000/svg">
  <sodipodi:namedview
     id="namedview1053"
     pagecolor="#ffffff"
     bordercolor="#666666"
     borderopacity="1.0"
     inkscape:pageshadow="2"
     inkscape:pageopacity="0.0"
     inkscape:pagecheckerboard="0"
     showgrid="false"
     inkscape:zoom="1"
     inkscape:cx="294"
     inkscape:cy="12.5"
     inkscape:window-width="1271"
     inkscape:window-height="1081"
     inkscape:window-x="71"
     inkscape:window-y="124"
     inkscape:window-maximized="0"
     inkscape:current-layer="svg1051"
     width="26px" />
  <g
     clip-path="url(#clip0)"
     id="g1044"
     style="font-variation-settings:normal;opacity:1;vector-effect:none;fill:url(#linearGradient1729);fill-opacity:1;stroke-width:1;stroke-linecap:butt;stroke-linejoin:miter;stroke-miterlimit:4;stroke-dasharray:none;stroke-dashoffset:0;stroke-opacity:1;-inkscape-stroke:none;stop-color:#000000;stop-opacity:1"
     transform="matrix(2.32,0,0,2.32,0,0.90625)">
    <path
       d="M 25,4.74844 C 24.0703,5.15625 23.0797,5.42656 22.0469,5.55781 23.1094,4.92344 23.9203,3.92656 24.3016,2.725 23.3109,3.31562 22.2172,3.73281 21.0516,3.96563 20.1109,2.96406 18.7703,2.34375 17.3078,2.34375 c -2.8375,0 -5.1219,2.30313 -5.1219,5.12656 0,0.40625 0.0344,0.79688 0.1188,1.16875 C 8.04375,8.43125 4.27344,6.38906 1.74062,3.27813 1.29844,4.04531 1.03906,4.92344 1.03906,5.86875 c 0,1.775 0.91406,3.34844 2.27656,4.25935 C 2.49219,10.1125 1.68437,9.87344 1,9.49688 1,9.5125 1,9.53281 1,9.55312 c 0,2.49058 1.77656,4.55938 4.10625,5.03598 -0.41719,0.114 -0.87187,0.1687 -1.34375,0.1687 -0.32812,0 -0.65938,-0.0187 -0.97031,-0.0875 0.66406,2.0297 2.54844,3.5219 4.78906,3.5703 -1.74375,1.3641 -3.95781,2.186 -6.35469,2.186 -0.42031,0 -0.823435,-0.0188 -1.22656,-0.0703 2.27031,1.464 4.96094,2.2999 7.8625,2.2999 9.4312,0 14.5875,-7.8124 14.5875,-14.58433 0,-0.22656 -0.0078,-0.44531 -0.0188,-0.66249 C 23.4484,6.6875 24.3031,5.78594 25,4.74844 Z"
       fill="white"
       id="path1042"
       style="font-variation-settings:normal;vector-effect:none;fill:url(#linearGradient1415);fill-opacity:1;stroke-width:1;stroke-linecap:butt;stroke-linejoin:miter;stroke-miterlimit:4;stroke-dasharray:none;stroke-dashoffset:0;stroke-opacity:1;-inkscape-stroke:none;stop-color:#000000;stop-opacity:1" />
  </g>
  <defs
     id="defs1049">
    <clipPath
       id="clip0">
      <rect
         width="25"
         height="25"
         fill="#ffffff"
         id="rect1046"
         x="0"
         y="0" />
    </clipPath>
    <linearGradient
       id="paint0_linear-3"
       x1="29"
       y1="0"
       x2="29"
       y2="58"
       gradientUnits="userSpaceOnUse"
       xlink:href="#paint0_linear-3">
      <stop
         stop-color="#39A7D2"
         id="stop24" />
      <stop
         offset="1"
         stop-color="#39C1B4"
         id="stop26" />
    </linearGradient>
    <linearGradient
       inkscape:collect="always"
       xlink:href="#paint0_linear-3"
       id="linearGradient1415"
       gradientUnits="userSpaceOnUse"
       x1="12.628866"
       y1="2.4914088"
       x2="12.915235"
       y2="22.623138" />
    <linearGradient
       inkscape:collect="always"
       xlink:href="#paint0_linear-3"
       id="linearGradient1729"
       gradientUnits="userSpaceOnUse"
       x1="29"
       y1="0"
       x2="29"
       y2="58" />
  </defs>
</svg>
